<svg width="128" height="128" viewBox="0 0 128 128" xmlns="http://www.w3.org/2000/svg">
  <defs>
    <linearGradient id="grad1" x1="0%" y1="0%" x2="100%" y2="100%">
      <stop offset="0%" style="stop-color:#667eea;stop-opacity:1" />
      <stop offset="100%" style="stop-color:#764ba2;stop-opacity:1" />
    </linearGradient>
  </defs>
  
  <!-- Background circle -->
  <circle cx="64" cy="64" r="60" fill="url(#grad1)" stroke="#fff" stroke-width="4"/>
  
  <!-- Document icon -->
  <rect x="35" y="25" width="50" height="70" rx="4" fill="white" opacity="0.9"/>
  
  <!-- Document lines -->
  <line x1="42" y1="35" x2="72" y2="35" stroke="#667eea" stroke-width="2" stroke-linecap="round"/>
  <line x1="42" y1="45" x2="78" y2="45" stroke="#667eea" stroke-width="2" stroke-linecap="round"/>
  <line x1="42" y1="55" x2="75" y2="55" stroke="#667eea" stroke-width="2" stroke-linecap="round"/>
  <line x1="42" y1="65" x2="78" y2="65" stroke="#667eea" stroke-width="2" stroke-linecap="round"/>
  <line x1="42" y1="75" x2="70" y2="75" stroke="#667eea" stroke-width="2" stroke-linecap="round"/>
  
  <!-- Extract arrow -->
  <path d="M 88 45 L 98 55 L 88 65 M 90 55 L 105 55" stroke="white" stroke-width="3" fill="none" stroke-linecap="round" stroke-linejoin="round"/>
  
  <!-- Small document copy -->
  <rect x="95" y="70" width="25" height="30" rx="2" fill="white" opacity="0.8"/>
  <line x1="98" y1="75" x2="115" y2="75" stroke="#667eea" stroke-width="1"/>
  <line x1="98" y1="80" x2="117" y2="80" stroke="#667eea" stroke-width="1"/>
  <line x1="98" y1="85" x2="112" y2="85" stroke="#667eea" stroke-width="1"/>
  <line x1="98" y1="90" x2="117" y2="90" stroke="#667eea" stroke-width="1"/>
</svg>
